<svg width="124" height="20" viewBox="0 0 124 20" fill="none" xmlns="http://www.w3.org/2000/svg"><path d="M6.33405 20C4.29501 20 2.73319 19.6529 1.64859 19.0022C0.99783 18.6117 0 17.7874 0 15.0542V6.72452H2.55965V14.7939C2.55965 16.833 3.60086 17.4404 6.33405 17.4404C9.06724 17.4404 10.1084 16.833 10.1084 14.7939V6.72452H12.6681V15.0542C12.6681 17.7874 11.6703 18.6117 11.0629 19.0022C9.93491 19.6963 8.37309 20 6.33405 20Z" fill="#fff"/><path d="M27.7657 13.2755C27.7657 13.2755 27.5054 13.0152 27.3752 12.9284C26.9848 12.6247 26.5076 12.4078 25.9436 12.2342C25.423 12.0607 24.6854 11.9306 23.8178 11.8438L22.2993 11.6703C21.2581 11.5835 19.3492 11.5401 19.3058 10.3687C19.3058 10.0651 19.436 9.71798 19.6529 9.45768C20.347 8.72015 21.7787 8.72015 22.4729 8.72015C24.3817 8.80692 25.9436 9.41429 27.1583 10.5423L28.2863 8.50323C27.0282 7.67894 25.9869 7.15833 25.0325 6.94141C24.0781 6.68111 23.2104 6.59434 22.3861 6.59434C20.4338 6.59434 18.9588 7.07156 18.0043 8.02601C17.2668 8.76354 16.8763 9.6746 16.9197 10.7592C16.9631 12.4078 18.0911 13.6225 19.5661 13.9262C21.6052 14.3601 23.731 14.1431 25.206 14.7939C26.6377 15.4447 26.1171 16.616 25.8568 16.8763C25.5965 17.1366 25.0759 17.9609 22.1258 17.6572C20.6073 17.5271 19.1757 17.0932 17.8308 16.1388L16.7028 18.1778C18.2212 19.0889 20.3904 20 22.7765 20C24.5119 20 26.4642 19.8264 27.7223 18.5683C28.4598 17.8308 28.8069 16.9197 28.8069 15.8351C28.8069 15.141 28.6768 14.577 28.3731 14.0564C28.2429 13.7527 28.026 13.4924 27.7657 13.2755Z" fill="#fff"/><path d="M43.2972 14.0998H35.4447V19.7831H32.885V6.72452H35.4447V11.9306H43.2972V6.72452H45.8568V19.7831H43.2972V14.0998Z" fill="#fff"/><path d="M72.0607 8.89371V19.7831H69.5011V8.89371H64.4685V6.7679H77.1366V8.89371H72.0607Z" fill="#fff"/><path d="M100.911 16.0087L105.032 6.7679H107.766L101.996 19.8265H99.7397L93.8828 6.7679H96.616L100.911 16.0087Z" fill="#fff"/><path d="M84.7288 4.59869H86.4641L89.7613 0L86.5943 0.0433839L84.7288 4.59869Z" fill="#fff"/><path d="M59.1756 16.4425H53.1886L51.5401 19.7831H49.0238L55.0541 6.72452H57.3101L63.514 19.7831H60.7808L59.1756 16.4425ZM58.3513 14.6638L56.1387 10.0217L53.9696 14.6638H58.3513Z" fill="#fff"/><path d="M88.3296 16.4425H82.3426L80.6941 19.7831H78.1344L84.1648 6.72452H86.4207L92.6246 19.7831H89.8914L88.3296 16.4425ZM87.4619 14.6638L85.2494 10.0217L83.0802 14.6638H87.4619Z" fill="#fff"/><path d="M119.349 16.4425H113.362L111.714 19.7831H109.154L115.184 6.72452H117.44L123.644 19.7831H120.911L119.349 16.4425ZM118.481 14.6638L116.269 10.0217L114.1 14.6638H118.481Z" fill="#fff"/></svg>